<svg xmlns="http://www.w3.org/2000/svg" width="875" height="221" viewBox="0 0 875 221">
  <style>
    @keyframes pop { 0% { transform: scale(0); } 4% { transform: scale(1.25); } 7%, 90% { transform: scale(1); } 100% { transform: scale(0); } }
    .c { transform-box: fill-box; transform-origin: center; transform: scale(0); animation: pop 10s ease-out infinite; }
    @keyframes trail { 0% { stroke-dashoffset: 1000; opacity: 1; } 78% { stroke-dashoffset: 0; opacity: 1; } 90% { opacity: 1; } 100% { stroke-dashoffset: 0; opacity: 0; } }
    .trail { stroke-dasharray: 1000; stroke-dashoffset: 1000; animation: trail 10s linear infinite; }
    @keyframes fade { from { opacity: 0; } to { opacity: 1; } }
    .f { animation: fade .8s ease-out both; }
</style>
  <defs>
  </defs>
  <rect width="875" height="221" rx="16" fill="#F7F1E3"/>
  <rect x="8" y="8" width="859" height="205" rx="10" fill="#FFFBF1" stroke="#DCD3BC" stroke-width="2"/><rect x="8" y="8" width="6" height="205" fill="#C8553D"/>
  <path d="M26 26 q10 -14 22 -8 q-4 14 -22 8 z" fill="#6FA35E"/>
  <text x="40" y="36" font-family="'Bitter','Rockwell',Georgia,serif" font-size="18" font-weight="700" fill="#3E6B48" class="f">jejak elang di lembah</text>
  <text x="835" y="36" text-anchor="end" font-family="'Bitter','Rockwell',Georgia,serif" font-size="14" fill="#66705F" class="f">159 kontribusi setahun</text>
  <rect x="40" y="70" width="12" height="12" rx="3" fill="#F2EAD6"/><rect x="40" y="85" width="12" height="12" rx="3" fill="#F2EAD6"/><rect x="40" y="100" width="12" height="12" rx="3" fill="#F2EAD6"/><rect x="40" y="115" width="12" height="12" rx="3" fill="#F2EAD6"/><rect x="40" y="130" width="12" height="12" rx="3" fill="#F2EAD6"/><rect x="40" y="145" width="12" height="12" rx="3" fill="#F2EAD6"/><rect x="40" y="160" width="12" height="12" rx="3" fill="#F2EAD6"/><rect x="55" y="70" width="12" height="12" rx="3" fill="#F2EAD6"/><rect x="55" y="85" width="12" height="12" rx="3" fill="#F2EAD6"/><rect x="55" y="100" width="12" height="12" rx="3" fill="#F2EAD6"/><rect x="55" y="115" width="12" height="12" rx="3" fill="#F2EAD6"/><rect x="55" y="130" width="12" height="12" rx="3" fill="#F2EAD6"/><rect x="55" y="145" width="12" height="12" rx="3" fill="#F2EAD6"/><rect x="55" y="160" width="12" height="12" rx="3" fill="#F2EAD6"/><rect x="70" y="70" width="12" height="12" rx="3" fill="#F2EAD6"/><rect x="70" y="85" width="12" height="12" rx="3" fill="#F2EAD6"/><rect x="70" y="100" width="12" height="12" rx="3" fill="#F2EAD6"/><rect x="70" y="115" width="12" height="12" rx="3" fill="#F2EAD6"/><rect x="70" y="130" width="12" height="12" rx="3" fill="#F2EAD6"/><rect x="70" y="145" width="12" height="12" rx="3" fill="#F2EAD6"/><rect x="70" y="160" width="12" height="12" rx="3" fill="#F2EAD6"/><rect x="85" y="70" width="12" height="12" rx="3" fill="#F2EAD6"/><rect x="85" y="85" width="12" height="12" rx="3" fill="#F2EAD6"/><rect x="85" y="100" width="12" height="12" rx="3" fill="#F2EAD6"/><rect x="85" y="115" width="12" height="12" rx="3" fill="#F2EAD6"/><rect x="85" y="130" width="12" height="12" rx="3" fill="#F2EAD6"/><rect x="85" y="145" width="12" height="12" rx="3" fill="#F2EAD6"/><rect x="85" y="160" width="12" height="12" rx="3" fill="#F2EAD6"/><rect x="100" y="70" width="12" height="12" rx="3" fill="#F2EAD6"/><rect x="100" y="85" width="12" height="12" rx="3" fill="#F2EAD6"/><rect x="100" y="100" width="12" height="12" rx="3" fill="#F2EAD6"/><rect x="100" y="115" width="12" height="12" rx="3" fill="#F2EAD6"/><rect x="100" y="130" width="12" height="12" rx="3" fill="#F2EAD6"/><rect x="100" y="145" width="12" height="12" rx="3" fill="#F2EAD6"/><rect x="100" y="160" width="12" height="12" rx="3" fill="#F2EAD6"/><rect x="115" y="70" width="12" height="12" rx="3" fill="#F2EAD6"/><rect x="115" y="85" width="12" height="12" rx="3" fill="#F2EAD6"/><rect x="115" y="100" width="12" height="12" rx="3" fill="#F2EAD6"/><rect x="115" y="115" width="12" height="12" rx="3" fill="#F2EAD6"/><rect x="115" y="130" width="12" height="12" rx="3" fill="#F2EAD6"/><rect x="115" y="145" width="12" height="12" rx="3" fill="#F2EAD6"/><rect x="115" y="160" width="12" height="12" rx="3" fill="#F2EAD6"/><rect x="130" y="70" width="12" height="12" rx="3" fill="#F2EAD6"/><rect x="130" y="85" width="12" height="12" rx="3" fill="#F2EAD6"/><rect x="130" y="100" width="12" height="12" rx="3" fill="#F2EAD6"/><rect x="130" y="115" width="12" height="12" rx="3" fill="#F2EAD6"/><rect x="130" y="130" width="12" height="12" rx="3" fill="#F2EAD6"/><rect x="130" y="145" width="12" height="12" rx="3" fill="#F2EAD6"/><rect x="130" y="160" width="12" height="12" rx="3" fill="#F2EAD6"/><rect x="145" y="70" width="12" height="12" rx="3" fill="#F2EAD6"/><rect x="145" y="85" width="12" height="12" rx="3" fill="#F2EAD6"/><rect x="145" y="100" width="12" height="12" rx="3" fill="#F2EAD6"/><rect x="145" y="115" width="12" height="12" rx="3" fill="#F2EAD6"/><rect x="145" y="130" width="12" height="12" rx="3" fill="#F2EAD6"/><rect x="145" y="145" width="12" height="12" rx="3" fill="#F2EAD6"/><rect x="145" y="160" width="12" height="12" rx="3" fill="#F2EAD6"/><rect x="160" y="70" width="12" height="12" rx="3" fill="#F2EAD6"/><rect x="160" y="85" width="12" height="12" rx="3" fill="#F2EAD6"/><rect x="160" y="100" width="12" height="12" rx="3" fill="#F2EAD6"/><rect x="160" y="115" width="12" height="12" rx="3" fill="#F2EAD6"/><rect x="160" y="130" width="12" height="12" rx="3" fill="#F2EAD6"/><rect x="160" y="145" width="12" height="12" rx="3" fill="#F2EAD6"/><rect x="160" y="160" width="12" height="12" rx="3" fill="#F2EAD6"/><rect x="175" y="70" width="12" height="12" rx="3" fill="#F2EAD6"/><rect x="175" y="85" width="12" height="12" rx="3" fill="#F2EAD6"/><rect x="175" y="100" width="12" height="12" rx="3" fill="#F2EAD6"/><rect x="175" y="115" width="12" height="12" rx="3" fill="#F2EAD6"/><rect x="175" y="130" width="12" height="12" rx="3" fill="#F2EAD6"/><rect x="175" y="145" width="12" height="12" rx="3" fill="#F2EAD6"/><rect x="175" y="160" width="12" height="12" rx="3" fill="#F2EAD6"/><rect x="190" y="70" width="12" height="12" rx="3" fill="#F2EAD6"/><rect x="190" y="85" width="12" height="12" rx="3" fill="#F2EAD6"/><rect x="190" y="100" width="12" height="12" rx="3" fill="#F2EAD6"/><rect x="190" y="115" width="12" height="12" rx="3" fill="#F2EAD6"/><rect x="190" y="130" width="12" height="12" rx="3" fill="#F2EAD6"/><rect x="190" y="145" width="12" height="12" rx="3" fill="#F2EAD6"/><rect x="190" y="160" width="12" height="12" rx="3" fill="#F2EAD6"/><rect x="205" y="70" width="12" height="12" rx="3" fill="#F2EAD6"/><rect x="205" y="85" width="12" height="12" rx="3" fill="#F2EAD6"/><rect x="205" y="100" width="12" height="12" rx="3" fill="#F2EAD6"/><rect x="205" y="115" width="12" height="12" rx="3" fill="#F2EAD6"/><rect x="205" y="130" width="12" height="12" rx="3" fill="#F2EAD6"/><rect x="205" y="145" width="12" height="12" rx="3" fill="#F2EAD6"/><rect x="205" y="160" width="12" height="12" rx="3" fill="#F2EAD6"/><rect x="220" y="70" width="12" height="12" rx="3" fill="#F2EAD6"/><rect x="220" y="85" width="12" height="12" rx="3" fill="#F2EAD6"/><rect x="220" y="100" width="12" height="12" rx="3" fill="#F2EAD6"/><rect x="220" y="115" width="12" height="12" rx="3" fill="#F2EAD6"/><rect x="220" y="130" width="12" height="12" rx="3" fill="#F2EAD6"/><rect x="220" y="145" width="12" height="12" rx="3" fill="#F2EAD6"/><rect x="220" y="160" width="12" height="12" rx="3" fill="#F2EAD6"/><rect x="235" y="70" width="12" height="12" rx="3" fill="#F2EAD6"/><rect x="235" y="85" width="12" height="12" rx="3" fill="#F2EAD6"/><rect x="235" y="100" width="12" height="12" rx="3" fill="#F2EAD6"/><rect x="235" y="115" width="12" height="12" rx="3" fill="#F2EAD6"/><rect x="235" y="130" width="12" height="12" rx="3" fill="#F2EAD6"/><rect x="235" y="145" width="12" height="12" rx="3" fill="#F2EAD6"/><rect x="235" y="160" width="12" height="12" rx="3" fill="#F2EAD6"/><rect x="250" y="70" width="12" height="12" rx="3" fill="#F2EAD6"/><rect x="250" y="85" width="12" height="12" rx="3" fill="#F2EAD6"/><rect x="250" y="100" width="12" height="12" rx="3" fill="#F2EAD6"/><rect x="250" y="115" width="12" height="12" rx="3" fill="#F2EAD6"/><rect x="250" y="130" width="12" height="12" rx="3" fill="#F2EAD6"/><rect x="250" y="145" width="12" height="12" rx="3" fill="#F2EAD6"/><rect x="250" y="160" width="12" height="12" rx="3" fill="#F2EAD6"/><rect x="265" y="70" width="12" height="12" rx="3" fill="#F2EAD6"/><rect x="265" y="85" width="12" height="12" rx="3" fill="#F2EAD6"/><rect x="265" y="100" width="12" height="12" rx="3" fill="#F2EAD6"/><rect x="265" y="115" width="12" height="12" rx="3" fill="#F2EAD6"/><rect x="265" y="130" width="12" height="12" rx="3" fill="#F2EAD6"/><rect x="265" y="145" width="12" height="12" rx="3" fill="#F2EAD6"/><rect x="265" y="160" width="12" height="12" rx="3" fill="#F2EAD6"/><rect x="280" y="70" width="12" height="12" rx="3" fill="#F2EAD6"/><rect x="280" y="85" width="12" height="12" rx="3" fill="#F2EAD6"/><rect x="280" y="100" width="12" height="12" rx="3" fill="#F2EAD6"/><rect x="280" y="115" width="12" height="12" rx="3" fill="#F2EAD6"/><rect x="280" y="130" width="12" height="12" rx="3" fill="#F2EAD6"/><rect x="280" y="145" width="12" height="12" rx="3" fill="#F2EAD6"/><rect x="280" y="160" width="12" height="12" rx="3" fill="#F2EAD6"/><rect x="295" y="70" width="12" height="12" rx="3" fill="#F2EAD6"/><rect x="295" y="85" width="12" height="12" rx="3" fill="#F2EAD6"/><rect x="295" y="100" width="12" height="12" rx="3" fill="#F2EAD6"/><rect x="295" y="115" width="12" height="12" rx="3" fill="#F2EAD6"/><rect x="295" y="130" width="12" height="12" rx="3" fill="#F2EAD6"/><rect x="295" y="145" width="12" height="12" rx="3" fill="#F2EAD6"/><rect x="295" y="160" width="12" height="12" rx="3" fill="#F2EAD6"/><rect x="310" y="70" width="12" height="12" rx="3" fill="#F2EAD6"/><rect x="310" y="85" width="12" height="12" rx="3" fill="#F2EAD6"/><rect x="310" y="100" width="12" height="12" rx="3" fill="#F2EAD6"/><rect x="310" y="115" width="12" height="12" rx="3" fill="#F2EAD6"/><rect x="310" y="130" width="12" height="12" rx="3" fill="#F2EAD6"/><rect x="310" y="145" width="12" height="12" rx="3" fill="#F2EAD6"/><rect x="310" y="160" width="12" height="12" rx="3" fill="#F2EAD6"/><rect x="325" y="70" width="12" height="12" rx="3" fill="#F2EAD6"/><rect x="325" y="85" width="12" height="12" rx="3" fill="#F2EAD6"/><rect x="325" y="100" width="12" height="12" rx="3" fill="#F2EAD6"/><rect x="325" y="115" width="12" height="12" rx="3" fill="#F2EAD6"/><rect x="325" y="130" width="12" height="12" rx="3" fill="#F2EAD6"/><rect x="325" y="145" width="12" height="12" rx="3" fill="#F2EAD6"/><rect x="325" y="160" width="12" height="12" rx="3" fill="#F2EAD6"/><rect x="340" y="70" width="12" height="12" rx="3" fill="#F2EAD6"/><rect x="340" y="85" width="12" height="12" rx="3" fill="#F2EAD6"/><rect x="340" y="100" width="12" height="12" rx="3" fill="#F2EAD6"/><rect x="340" y="115" width="12" height="12" rx="3" fill="#F2EAD6"/><rect x="340" y="130" width="12" height="12" rx="3" fill="#F2EAD6"/><rect x="340" y="145" width="12" height="12" rx="3" fill="#F2EAD6"/><rect x="340" y="160" width="12" height="12" rx="3" fill="#F2EAD6"/><rect x="355" y="70" width="12" height="12" rx="3" fill="#F2EAD6"/><rect x="355" y="85" width="12" height="12" rx="3" fill="#F2EAD6"/><rect x="355" y="100" width="12" height="12" rx="3" fill="#F2EAD6"/><rect x="355" y="115" width="12" height="12" rx="3" fill="#F2EAD6"/><rect x="355" y="130" width="12" height="12" rx="3" fill="#F2EAD6"/><rect x="355" y="145" width="12" height="12" rx="3" fill="#F2EAD6"/><rect x="355" y="160" width="12" height="12" rx="3" fill="#F2EAD6"/><rect x="370" y="70" width="12" height="12" rx="3" fill="#F2EAD6"/><rect x="370" y="85" width="12" height="12" rx="3" fill="#F2EAD6"/><rect x="370" y="100" width="12" height="12" rx="3" fill="#F2EAD6"/><rect x="370" y="115" width="12" height="12" rx="3" fill="#F2EAD6"/><rect x="370" y="130" width="12" height="12" rx="3" fill="#F2EAD6"/><rect x="370" y="145" width="12" height="12" rx="3" fill="#F2EAD6"/><rect x="370" y="160" width="12" height="12" rx="3" fill="#F2EAD6"/><rect x="385" y="70" width="12" height="12" rx="3" fill="#F2EAD6"/><rect x="385" y="85" width="12" height="12" rx="3" fill="#F2EAD6"/><rect x="385" y="100" width="12" height="12" rx="3" fill="#F2EAD6"/><rect x="385" y="115" width="12" height="12" rx="3" fill="#F2EAD6"/><rect x="385" y="130" width="12" height="12" rx="3" fill="#F2EAD6"/><rect x="385" y="145" width="12" height="12" rx="3" fill="#F2EAD6"/><rect x="385" y="160" width="12" height="12" rx="3" fill="#F2EAD6"/><rect x="400" y="70" width="12" height="12" rx="3" fill="#F2EAD6"/><rect x="400" y="85" width="12" height="12" rx="3" fill="#F2EAD6"/><rect x="400" y="100" width="12" height="12" rx="3" fill="#F2EAD6"/><rect x="400" y="115" width="12" height="12" rx="3" fill="#F2EAD6"/><rect x="400" y="130" width="12" height="12" rx="3" fill="#F2EAD6"/><rect x="400" y="145" width="12" height="12" rx="3" fill="#F2EAD6"/><rect x="400" y="160" width="12" height="12" rx="3" fill="#F2EAD6"/><rect x="415" y="70" width="12" height="12" rx="3" fill="#F2EAD6"/><rect x="415" y="85" width="12" height="12" rx="3" fill="#F2EAD6"/><rect x="415" y="100" width="12" height="12" rx="3" fill="#F2EAD6"/><rect x="415" y="115" width="12" height="12" rx="3" fill="#F2EAD6"/><rect x="415" y="130" width="12" height="12" rx="3" fill="#F2EAD6"/><rect x="415" y="145" width="12" height="12" rx="3" fill="#F2EAD6"/><rect x="415" y="160" width="12" height="12" rx="3" fill="#F2EAD6"/><rect x="430" y="70" width="12" height="12" rx="3" fill="#F2EAD6"/><rect x="430" y="85" width="12" height="12" rx="3" fill="#F2EAD6"/><rect x="430" y="100" width="12" height="12" rx="3" fill="#F2EAD6"/><rect x="430" y="115" width="12" height="12" rx="3" fill="#F2EAD6"/><rect x="430" y="130" width="12" height="12" rx="3" fill="#F2EAD6"/><rect x="430" y="145" width="12" height="12" rx="3" fill="#F2EAD6"/><rect x="430" y="160" width="12" height="12" rx="3" fill="#F2EAD6"/><rect x="445" y="70" width="12" height="12" rx="3" fill="#F2EAD6"/><rect x="445" y="85" width="12" height="12" rx="3" fill="#F2EAD6"/><rect x="445" y="100" width="12" height="12" rx="3" fill="#F2EAD6"/><rect x="445" y="115" width="12" height="12" rx="3" fill="#F2EAD6"/><rect x="445" y="130" width="12" height="12" rx="3" fill="#F2EAD6"/><rect x="445" y="145" width="12" height="12" rx="3" fill="#F2EAD6"/><rect x="445" y="160" width="12" height="12" rx="3" fill="#F2EAD6"/><rect x="460" y="70" width="12" height="12" rx="3" fill="#F2EAD6"/><rect x="460" y="85" width="12" height="12" rx="3" fill="#F2EAD6"/><rect x="460" y="100" width="12" height="12" rx="3" fill="#F2EAD6"/><rect x="460" y="115" width="12" height="12" rx="3" fill="#F2EAD6"/><rect x="460" y="130" width="12" height="12" rx="3" fill="#F2EAD6"/><rect x="460" y="145" width="12" height="12" rx="3" fill="#F2EAD6"/><rect x="460" y="160" width="12" height="12" rx="3" fill="#F2EAD6"/><rect x="475" y="70" width="12" height="12" rx="3" fill="#F2EAD6"/><rect x="475" y="85" width="12" height="12" rx="3" fill="#F2EAD6"/><rect x="475" y="100" width="12" height="12" rx="3" fill="#F2EAD6"/><rect x="475" y="115" width="12" height="12" rx="3" fill="#F2EAD6"/><rect x="475" y="130" width="12" height="12" rx="3" fill="#F2EAD6"/><rect x="475" y="145" width="12" height="12" rx="3" fill="#F2EAD6"/><rect x="475" y="160" width="12" height="12" rx="3" fill="#F2EAD6"/><rect x="490" y="70" width="12" height="12" rx="3" fill="#F2EAD6"/><rect x="490" y="85" width="12" height="12" rx="3" fill="#F2EAD6"/><rect x="490" y="100" width="12" height="12" rx="3" fill="#F2EAD6"/><rect x="490" y="115" width="12" height="12" rx="3" fill="#F2EAD6"/><rect x="490" y="130" width="12" height="12" rx="3" fill="#F2EAD6"/><rect x="490" y="145" width="12" height="12" rx="3" fill="#F2EAD6"/><rect x="490" y="160" width="12" height="12" rx="3" fill="#F2EAD6"/><rect x="505" y="70" width="12" height="12" rx="3" fill="#F2EAD6"/><rect x="505" y="85" width="12" height="12" rx="3" fill="#F2EAD6"/><rect x="505" y="100" width="12" height="12" rx="3" fill="#F2EAD6"/><rect x="505" y="115" width="12" height="12" rx="3" fill="#F2EAD6"/><rect x="505" y="130" width="12" height="12" rx="3" fill="#F2EAD6"/><rect x="505" y="145" width="12" height="12" rx="3" fill="#F2EAD6"/><rect x="505" y="160" width="12" height="12" rx="3" fill="#F2EAD6"/><rect x="520" y="70" width="12" height="12" rx="3" fill="#F2EAD6"/><rect x="520" y="85" width="12" height="12" rx="3" fill="#F2EAD6"/><rect x="520" y="100" width="12" height="12" rx="3" fill="#F2EAD6"/><rect x="520" y="115" width="12" height="12" rx="3" fill="#F2EAD6"/><rect x="520" y="130" width="12" height="12" rx="3" fill="#F2EAD6"/><rect x="520" y="145" width="12" height="12" rx="3" fill="#F2EAD6"/><rect x="520" y="160" width="12" height="12" rx="3" fill="#F2EAD6"/><rect x="535" y="70" width="12" height="12" rx="3" fill="#F2EAD6"/><rect x="535" y="85" width="12" height="12" rx="3" fill="#F2EAD6"/><rect x="535" y="100" width="12" height="12" rx="3" fill="#F2EAD6"/><rect x="535" y="115" width="12" height="12" rx="3" fill="#F2EAD6"/><rect x="535" y="130" width="12" height="12" rx="3" fill="#F2EAD6"/><rect x="535" y="145" width="12" height="12" rx="3" fill="#F2EAD6"/><rect x="535" y="160" width="12" height="12" rx="3" fill="#F2EAD6"/><rect x="550" y="70" width="12" height="12" rx="3" fill="#F2EAD6"/><rect x="550" y="85" width="12" height="12" rx="3" fill="#F2EAD6"/><rect x="550" y="100" width="12" height="12" rx="3" fill="#F2EAD6"/><rect x="550" y="115" width="12" height="12" rx="3" fill="#F2EAD6"/><rect x="550" y="130" width="12" height="12" rx="3" fill="#F2EAD6"/><rect x="550" y="145" width="12" height="12" rx="3" fill="#F2EAD6"/><rect x="550" y="160" width="12" height="12" rx="3" fill="#F2EAD6"/><rect x="565" y="70" width="12" height="12" rx="3" fill="#F2EAD6"/><rect x="565" y="85" width="12" height="12" rx="3" fill="#F2EAD6"/><rect x="565" y="100" width="12" height="12" rx="3" fill="#F2EAD6"/><rect x="565" y="115" width="12" height="12" rx="3" fill="#F2EAD6"/><rect x="565" y="130" width="12" height="12" rx="3" fill="#F2EAD6"/><rect x="565" y="145" width="12" height="12" rx="3" fill="#F2EAD6"/><rect x="565" y="160" width="12" height="12" rx="3" fill="#F2EAD6"/><rect x="580" y="70" width="12" height="12" rx="3" fill="#F2EAD6"/><rect x="580" y="85" width="12" height="12" rx="3" fill="#F2EAD6"/><rect x="580" y="100" width="12" height="12" rx="3" fill="#F2EAD6"/><rect x="580" y="115" width="12" height="12" rx="3" fill="#F2EAD6"/><rect x="580" y="130" width="12" height="12" rx="3" fill="#F2EAD6"/><rect x="580" y="145" width="12" height="12" rx="3" fill="#F2EAD6"/><rect x="580" y="160" width="12" height="12" rx="3" fill="#F2EAD6"/><rect x="595" y="70" width="12" height="12" rx="3" fill="#F2EAD6"/><rect x="595" y="85" width="12" height="12" rx="3" fill="#F2EAD6"/><rect x="595" y="100" width="12" height="12" rx="3" fill="#F2EAD6"/><rect x="595" y="115" width="12" height="12" rx="3" fill="#F2EAD6"/><rect x="595" y="130" width="12" height="12" rx="3" fill="#F2EAD6"/><rect x="595" y="145" width="12" height="12" rx="3" fill="#F2EAD6"/><rect x="595" y="160" width="12" height="12" rx="3" fill="#F2EAD6"/><rect x="610" y="70" width="12" height="12" rx="3" fill="#F2EAD6"/><rect x="610" y="85" width="12" height="12" rx="3" fill="#F2EAD6"/><rect x="610" y="100" width="12" height="12" rx="3" fill="#F2EAD6"/><rect x="610" y="115" width="12" height="12" rx="3" fill="#F2EAD6"/><rect x="610" y="130" width="12" height="12" rx="3" fill="#F2EAD6"/><rect x="610" y="145" width="12" height="12" rx="3" fill="#F2EAD6"/><rect x="610" y="160" width="12" height="12" rx="3" fill="#F2EAD6"/><rect x="625" y="70" width="12" height="12" rx="3" fill="#F2EAD6"/><rect x="625" y="85" width="12" height="12" rx="3" fill="#F2EAD6"/><rect x="625" y="100" width="12" height="12" rx="3" fill="#F2EAD6"/><rect x="625" y="115" width="12" height="12" rx="3" fill="#F2EAD6"/><rect x="625" y="130" width="12" height="12" rx="3" fill="#F2EAD6"/><rect x="625" y="145" width="12" height="12" rx="3" fill="#F2EAD6"/><rect x="625" y="160" width="12" height="12" rx="3" fill="#F2EAD6"/><rect x="640" y="70" width="12" height="12" rx="3" fill="#F2EAD6"/><rect x="640" y="85" width="12" height="12" rx="3" fill="#F2EAD6"/><rect x="640" y="100" width="12" height="12" rx="3" fill="#F2EAD6"/><rect x="640" y="115" width="12" height="12" rx="3" fill="#F2EAD6"/><rect x="640" y="130" width="12" height="12" rx="3" fill="#F2EAD6"/><rect x="640" y="145" width="12" height="12" rx="3" fill="#F2EAD6"/><rect x="640" y="160" width="12" height="12" rx="3" fill="#F2EAD6"/><rect x="655" y="70" width="12" height="12" rx="3" fill="#F2EAD6"/><rect x="655" y="85" width="12" height="12" rx="3" fill="#F2EAD6"/><rect x="655" y="100" width="12" height="12" rx="3" fill="#F2EAD6"/><rect x="655" y="115" width="12" height="12" rx="3" fill="#F2EAD6"/><rect x="655" y="130" width="12" height="12" rx="3" fill="#F2EAD6"/><rect x="655" y="145" width="12" height="12" rx="3" fill="#F2EAD6"/><rect x="655" y="160" width="12" height="12" rx="3" fill="#F2EAD6"/><rect x="670" y="70" width="12" height="12" rx="3" fill="#F2EAD6"/><rect x="670" y="85" width="12" height="12" rx="3" fill="#F2EAD6"/><rect x="670" y="100" width="12" height="12" rx="3" fill="#F2EAD6"/><rect x="670" y="115" width="12" height="12" rx="3" fill="#F2EAD6"/><rect x="670" y="130" width="12" height="12" rx="3" fill="#F2EAD6"/><rect x="670" y="145" width="12" height="12" rx="3" fill="#F2EAD6"/><rect x="670" y="160" width="12" height="12" rx="3" fill="#F2EAD6"/><rect x="685" y="70" width="12" height="12" rx="3" fill="#F2EAD6"/><rect x="685" y="85" width="12" height="12" rx="3" fill="#F2EAD6"/><rect x="685" y="100" width="12" height="12" rx="3" fill="#F2EAD6"/><rect x="685" y="115" width="12" height="12" rx="3" fill="#F2EAD6"/><rect x="685" y="130" width="12" height="12" rx="3" fill="#F2EAD6"/><rect x="685" y="145" width="12" height="12" rx="3" fill="#F2EAD6"/><rect x="685" y="160" width="12" height="12" rx="3" fill="#F2EAD6"/><rect x="700" y="70" width="12" height="12" rx="3" fill="#F2EAD6"/><rect x="700" y="85" width="12" height="12" rx="3" fill="#F2EAD6"/><rect x="700" y="100" width="12" height="12" rx="3" fill="#F2EAD6"/><rect x="700" y="115" width="12" height="12" rx="3" fill="#F2EAD6"/><rect x="700" y="130" width="12" height="12" rx="3" fill="#F2EAD6"/><rect x="700" y="145" width="12" height="12" rx="3" fill="#F2EAD6"/><rect x="700" y="160" width="12" height="12" rx="3" fill="#F2EAD6"/><rect x="715" y="70" width="12" height="12" rx="3" fill="#F2EAD6"/><rect x="715" y="85" width="12" height="12" rx="3" fill="#F2EAD6"/><rect x="715" y="100" width="12" height="12" rx="3" fill="#F2EAD6"/><rect x="715" y="115" width="12" height="12" rx="3" fill="#F2EAD6"/><rect x="715" y="130" width="12" height="12" rx="3" fill="#F2EAD6"/><rect x="715" y="145" width="12" height="12" rx="3" fill="#F2EAD6"/><rect x="715" y="160" width="12" height="12" rx="3" fill="#F2EAD6"/><rect x="730" y="70" width="12" height="12" rx="3" fill="#F2EAD6"/><rect x="730" y="85" width="12" height="12" rx="3" fill="#F2EAD6"/><rect x="730" y="100" width="12" height="12" rx="3" fill="#F2EAD6"/><rect x="730" y="115" width="12" height="12" rx="3" fill="#F2EAD6"/><rect x="730" y="130" width="12" height="12" rx="3" fill="#F2EAD6"/><rect x="730" y="145" width="12" height="12" rx="3" fill="#F2EAD6"/><rect x="730" y="160" width="12" height="12" rx="3" fill="#F2EAD6"/><rect x="745" y="70" width="12" height="12" rx="3" fill="#F2EAD6"/><rect x="745" y="85" width="12" height="12" rx="3" fill="#F2EAD6"/><rect x="745" y="100" width="12" height="12" rx="3" fill="#F2EAD6"/><rect x="745" y="115" width="12" height="12" rx="3" fill="#F2EAD6"/><rect x="745" y="130" width="12" height="12" rx="3" fill="#F2EAD6"/><rect x="745" y="145" width="12" height="12" rx="3" fill="#F2EAD6"/><rect x="745" y="160" width="12" height="12" rx="3" fill="#F2EAD6"/><rect x="760" y="70" width="12" height="12" rx="3" fill="#F2EAD6"/><rect x="760" y="85" width="12" height="12" rx="3" fill="#F2EAD6"/><rect x="760" y="100" width="12" height="12" rx="3" fill="#F2EAD6"/><rect x="760" y="115" width="12" height="12" rx="3" fill="#F2EAD6"/><rect x="760" y="130" width="12" height="12" rx="3" fill="#F2EAD6"/><rect x="760" y="145" width="12" height="12" rx="3" fill="#F2EAD6"/><rect x="760" y="160" width="12" height="12" rx="3" fill="#F2EAD6"/><rect x="775" y="70" width="12" height="12" rx="3" fill="#F2EAD6"/><rect x="775" y="85" width="12" height="12" rx="3" fill="#F2EAD6"/><rect x="775" y="100" width="12" height="12" rx="3" fill="#F2EAD6"/><rect x="775" y="115" width="12" height="12" rx="3" fill="#F2EAD6"/><rect x="775" y="130" width="12" height="12" rx="3" fill="#F2EAD6"/><rect x="775" y="145" width="12" height="12" rx="3" fill="#F2EAD6"/><rect x="775" y="160" width="12" height="12" rx="3" fill="#F2EAD6"/><rect x="790" y="70" width="12" height="12" rx="3" fill="#F2EAD6"/><rect x="790" y="85" width="12" height="12" rx="3" fill="#F2EAD6"/><rect x="790" y="100" width="12" height="12" rx="3" fill="#F2EAD6"/><rect x="790" y="115" width="12" height="12" rx="3" fill="#F2EAD6"/><rect x="790" y="130" width="12" height="12" rx="3" fill="#F2EAD6"/><rect x="790" y="145" width="12" height="12" rx="3" fill="#F2EAD6"/><rect x="790" y="160" width="12" height="12" rx="3" fill="#F2EAD6"/><rect x="805" y="70" width="12" height="12" rx="3" fill="#F2EAD6"/><rect x="805" y="85" width="12" height="12" rx="3" fill="#F2EAD6"/><rect x="805" y="100" width="12" height="12" rx="3" fill="#F2EAD6"/><rect x="805" y="115" width="12" height="12" rx="3" fill="#F2EAD6"/><rect x="805" y="130" width="12" height="12" rx="3" fill="#F2EAD6"/><rect x="805" y="145" width="12" height="12" rx="3" fill="#F2EAD6"/><rect x="805" y="160" width="12" height="12" rx="3" fill="#F2EAD6"/><rect x="820" y="70" width="12" height="12" rx="3" fill="#F2EAD6"/><rect x="820" y="85" width="12" height="12" rx="3" fill="#F2EAD6"/><rect x="820" y="100" width="12" height="12" rx="3" fill="#F2EAD6"/><rect x="820" y="115" width="12" height="12" rx="3" fill="#F2EAD6"/><rect x="820" y="130" width="12" height="12" rx="3" fill="#F2EAD6"/><rect x="820" y="145" width="12" height="12" rx="3" fill="#F2EAD6"/><rect x="820" y="160" width="12" height="12" rx="3" fill="#F2EAD6"/>
  <rect class="c" style="animation-delay:6.06s" x="715" y="85" width="12" height="12" rx="3" fill="#CFE6B8"/><rect class="c" style="animation-delay:6.73s" x="790" y="100" width="12" height="12" rx="3" fill="#9BC47A"/><rect class="c" style="animation-delay:6.73s" x="790" y="115" width="12" height="12" rx="3" fill="#6FA35E"/><rect class="c" style="animation-delay:6.73s" x="790" y="130" width="12" height="12" rx="3" fill="#9BC47A"/><rect class="c" style="animation-delay:6.73s" x="790" y="145" width="12" height="12" rx="3" fill="#9BC47A"/><rect class="c" style="animation-delay:6.87s" x="805" y="85" width="12" height="12" rx="3" fill="#9BC47A"/><rect class="c" style="animation-delay:6.87s" x="805" y="130" width="12" height="12" rx="3" fill="#9BC47A"/><rect class="c" style="animation-delay:6.87s" x="805" y="145" width="12" height="12" rx="3" fill="#6FA35E"/><rect class="c" style="animation-delay:7.00s" x="820" y="85" width="12" height="12" rx="3" fill="#3E6B48"/><rect class="c" style="animation-delay:7.00s" x="820" y="100" width="12" height="12" rx="3" fill="#6FA35E"/><rect class="c" style="animation-delay:7.00s" x="820" y="115" width="12" height="12" rx="3" fill="#6FA35E"/><rect class="c" style="animation-delay:7.00s" x="820" y="130" width="12" height="12" rx="3" fill="#3E6B48"/><rect class="c" style="animation-delay:7.00s" x="820" y="145" width="12" height="12" rx="3" fill="#CFE6B8"/>
  <path class="trail" pathLength="1000" d="M10 44 Q 106.2 62, 172.5 44 Q 238.8 32, 305.0 44 Q 371.2 62, 437.5 44 Q 503.8 32, 570.0 44 Q 636.2 62, 702.5 44 Q 768.8 32, 835.0 44 L 935 14" fill="none" stroke="#3E6B48" stroke-width="1.6" stroke-linecap="round" opacity=".45"/>
  <g>
    <g><animateTransform attributeName="transform" type="scale" values="1 1;1 .55;1 1" dur="1.2s" repeatCount="indefinite"/>
      <path d="M-34 2 C -24 -10, -12 -12, 0 0 C 12 -12, 24 -10, 34 2 C 24 -4, 12 -2, 0 6 C -12 -2, -24 -4, -34 2 Z" fill="#2E3A32"/>
    </g>
    <path d="M-3 0 C -3 -4, 3 -4, 3 0 L 0 8 Z" fill="#3A2E24"/>
    <animateMotion dur="10s" repeatCount="indefinite" keyPoints="0;1;1" keyTimes="0;0.78;1" calcMode="linear" path="M10 44 Q 106.2 62, 172.5 44 Q 238.8 32, 305.0 44 Q 371.2 62, 437.5 44 Q 503.8 32, 570.0 44 Q 636.2 62, 702.5 44 Q 768.8 32, 835.0 44 L 935 14"/>
  </g>
  <g font-family="'Bitter','Rockwell',Georgia,serif" font-size="12" fill="#66705F">
    <text x="40" y="203">sedikit</text>
    <rect x="90" y="192" width="12" height="12" rx="3" fill="#CFE6B8"/><rect x="108" y="192" width="12" height="12" rx="3" fill="#9BC47A"/><rect x="126" y="192" width="12" height="12" rx="3" fill="#6FA35E"/><rect x="144" y="192" width="12" height="12" rx="3" fill="#3E6B48"/>
    <text x="168" y="203">banyak</text>
  </g>
</svg>
